<svg width="37" height="37" viewBox="0 0 37 37" fill="none" xmlns="http://www.w3.org/2000/svg">
<circle cx="18.5" cy="18.5" r="18.5" fill="white"/>
<g clip-path="url(#clip0_23_41)">
<path d="M27.9555 20.5605C27.9545 20.2156 27.8808 19.8749 27.7391 19.5605C27.5974 19.2461 27.391 18.9651 27.1333 18.736V16.4444C27.1311 14.4825 26.3508 12.6015 24.9635 11.2142C23.5762 9.82695 21.6952 9.04661 19.7333 9.04443H16.4444C14.4825 9.04661 12.6015 9.82695 11.2142 11.2142C9.82693 12.6015 9.04659 14.4825 9.04441 16.4444V18.736C8.78673 18.9651 8.5803 19.2461 8.43861 19.5605C8.29693 19.8749 8.22318 20.2156 8.22219 20.5605V20.7011C8.22069 21.0499 8.2932 21.3951 8.43493 21.7139C8.57666 22.0326 8.7844 22.3177 9.04441 22.5503V25.4889C9.04441 26.3611 9.39092 27.1977 10.0077 27.8145C10.6245 28.4313 11.461 28.7778 12.3333 28.7778H23.8444C24.7167 28.7778 25.5532 28.4313 26.17 27.8145C26.7868 27.1977 27.1333 26.3611 27.1333 25.4889V22.3858C27.3911 22.1566 27.5976 21.8755 27.7393 21.5609C27.881 21.2464 27.9546 20.9055 27.9555 20.5605V20.5605ZM10.6889 16.4444C10.6906 14.9185 11.2975 13.4556 12.3765 12.3766C13.4555 11.2976 14.9185 10.6906 16.4444 10.6889H19.7333C21.2592 10.6906 22.7222 11.2976 23.8012 12.3766C24.8802 13.4556 25.4871 14.9185 25.4889 16.4444V18.0938H10.6889V16.4444ZM25.4889 21.3827H22.2C20.0204 21.384 17.9147 22.1724 16.2701 23.6027C16.0911 23.76 15.8609 23.8468 15.6226 23.8468C15.3843 23.8468 15.1541 23.76 14.9751 23.6027C13.7084 22.5006 12.1599 21.773 10.503 21.5011C10.3201 21.4634 10.1561 21.3627 10.0398 21.2165C9.9235 21.0702 9.86221 20.8879 9.86664 20.7011V20.5605C9.86664 20.3424 9.95326 20.1333 10.1075 19.9791C10.2617 19.8249 10.4708 19.7383 10.6889 19.7383H25.4889C25.7069 19.7383 25.9161 19.8249 26.0703 19.9791C26.2245 20.1333 26.3111 20.3424 26.3111 20.5605C26.3111 20.7785 26.2245 20.9877 26.0703 21.1419C25.9161 21.2961 25.7069 21.3827 25.4889 21.3827ZM25.4889 25.4889C25.4889 25.925 25.3156 26.3433 25.0072 26.6517C24.6988 26.9601 24.2805 27.1333 23.8444 27.1333H12.3333C11.8972 27.1333 11.4789 26.9601 11.1705 26.6517C10.8621 26.3433 10.6889 25.925 10.6889 25.4889V23.2302C11.8737 23.495 12.9751 24.0476 13.8955 24.8393C14.3725 25.2597 14.9864 25.4916 15.6222 25.4916C16.258 25.4916 16.8719 25.2597 17.3489 24.8393C18.6953 23.6719 20.4179 23.0296 22.2 23.0304H25.4889V25.4889ZM17.2666 13.1555C17.2666 13.3736 17.18 13.5827 17.0258 13.7369C16.8716 13.8911 16.6625 13.9778 16.4444 13.9778C16.2263 13.9778 16.0172 13.8911 15.863 13.7369C15.7088 13.5827 15.6222 13.3736 15.6222 13.1555C15.6222 12.9375 15.7088 12.7283 15.863 12.5741C16.0172 12.4199 16.2263 12.3333 16.4444 12.3333C16.6625 12.3333 16.8716 12.4199 17.0258 12.5741C17.18 12.7283 17.2666 12.9375 17.2666 13.1555ZM14.8 15.6222C14.8 15.8403 14.7133 16.0494 14.5591 16.2036C14.4049 16.3578 14.1958 16.4444 13.9777 16.4444C13.7597 16.4444 13.5505 16.3578 13.3963 16.2036C13.2422 16.0494 13.1555 15.8403 13.1555 15.6222C13.1555 15.4041 13.2422 15.195 13.3963 15.0408C13.5505 14.8866 13.7597 14.8 13.9777 14.8C14.1958 14.8 14.4049 14.8866 14.5591 15.0408C14.7133 15.195 14.8 15.4041 14.8 15.6222V15.6222Z" fill="#9A705E"/>
</g>
<defs>
<clipPath id="clip0_23_41">
<rect width="19.7333" height="19.7333" fill="white" transform="translate(8.22217 9.04443)"/>
</clipPath>
</defs>
</svg>
